PathFileType	4	(X/Y/Z)	max-elbow-flex-wide_P0_1-783_filt_butterworth_LSTM.trc
DataRate	CameraRate	NumFrames	NumMarkers	Units	OrigDataRate	OrigDataStartFrame	OrigNumFrames
60	60	44	3	m	60	98	782
Frame#	Time	r_acromion			r_humerus_epicondyle			r_radius_styloid		
X1	Y1	Z1	X2	Y2	Z2	X3	Y3	Z3
98	1.6333	-0.0050000000000000044	0.8337999999999999	0.18400000000000005	0.28190000000000004	0.7886	0.21460000000000024	0.4898	0.8219999999999998	0.2897000000000002
99	1.65	-0.0050000000000000044	0.8336999999999999	0.18440000000000023	0.2821	0.7887	0.2148000000000002	0.48950000000000005	0.8218999999999999	0.28980000000000017
100	1.6667	-0.0050000000000000044	0.8336999999999999	0.18490000000000018	0.2822	0.7888	0.21470000000000022	0.48919999999999997	0.8218999999999999	0.29000000000000015
101	1.6833	-0.005199999999999982	0.8335999999999999	0.18530000000000013	0.2823	0.7887	0.21440000000000026	0.4889	0.8217999999999999	0.2903000000000001
102	1.7	-0.005599999999999994	0.8335999999999999	0.1856000000000001	0.2823	0.7884	0.21400000000000008	0.48850000000000005	0.8216999999999999	0.2904000000000001
103	1.7167	-0.006000000000000005	0.8334999999999999	0.1857000000000001	0.2823	0.7882	0.21350000000000013	0.4881	0.8214999999999999	0.2905000000000001
104	1.7333	-0.006299999999999972	0.8333999999999999	0.1856000000000001	0.2821	0.7881	0.21330000000000016	0.4877	0.8212999999999999	0.2906000000000001
105	1.75	-0.006299999999999972	0.8333999999999999	0.18540000000000012	0.28200000000000003	0.788	0.21320000000000017	0.48750000000000004	0.821	0.2906000000000001
106	1.7667	-0.006000000000000005	0.8333999999999999	0.18520000000000014	0.28180000000000005	0.7879	0.21330000000000016	0.48730000000000007	0.8207	0.29070000000000007
107	1.7833	-0.005500000000000005	0.8333999999999999	0.1848000000000002	0.28170000000000006	0.7877999999999998	0.21350000000000013	0.4869	0.8204	0.29090000000000005
108	1.8	-0.00489999999999996	0.8332999999999999	0.18440000000000023	0.2816000000000001	0.7876999999999998	0.2137000000000001	0.48650000000000004	0.8200999999999998	0.2913000000000002
109	1.8167	-0.004599999999999993	0.8331999999999999	0.18410000000000004	0.2815	0.7876999999999998	0.2139000000000001	0.48619999999999997	0.8198999999999999	0.29180000000000017
110	1.8333	-0.0043999999999999595	0.833	0.18390000000000006	0.2814	0.7876999999999998	0.21410000000000007	0.486	0.8197999999999999	0.2925000000000001
111	1.85	-0.0043999999999999595	0.8328	0.18370000000000009	0.2814	0.7875999999999999	0.21430000000000005	0.4858	0.8194999999999999	0.29300000000000026
112	1.8667	-0.004599999999999993	0.8328	0.1835000000000001	0.2812	0.7874999999999999	0.21440000000000026	0.4858	0.8190999999999999	0.2933000000000002
113	1.8833	-0.005299999999999971	0.8329	0.1835000000000001	0.281	0.7871999999999999	0.21460000000000024	0.4857	0.8186	0.29310000000000025
114	1.9	-0.006099999999999994	0.833	0.18370000000000009	0.28060000000000007	0.7868999999999999	0.2149000000000002	0.48550000000000004	0.8181	0.29280000000000006
115	1.9167	-0.006799999999999973	0.833	0.18380000000000007	0.2801	0.7864	0.21520000000000017	0.48530000000000006	0.8177999999999999	0.2924000000000001
116	1.9333	-0.007299999999999973	0.833	0.18390000000000006	0.2794	0.7859	0.21550000000000014	0.4849	0.8176999999999999	0.2924000000000001
117	1.95	-0.007500000000000007	0.8328	0.18400000000000005	0.27890000000000004	0.7851999999999999	0.21540000000000015	0.48440000000000005	0.8179999999999998	0.2926000000000001
118	1.9667	-0.007500000000000007	0.8325	0.18430000000000024	0.27860000000000007	0.7844	0.21510000000000018	0.484	0.8189	0.29300000000000026
119	1.9833	-0.007500000000000007	0.8321999999999998	0.1846000000000002	0.27849999999999997	0.7834999999999999	0.21470000000000022	0.4839	0.8203	0.29320000000000024
120	2.0	-0.007299999999999973	0.8318999999999999	0.18520000000000014	0.27849999999999997	0.7825	0.21440000000000026	0.484	0.8223	0.29310000000000025
121	2.0167	-0.007099999999999995	0.8316999999999999	0.1857000000000001	0.27870000000000006	0.7814999999999999	0.21410000000000007	0.48430000000000006	0.8245	0.2926000000000001
122	2.0333	-0.006799999999999973	0.8316999999999999	0.18600000000000005	0.2791	0.7805	0.21400000000000008	0.48430000000000006	0.8269	0.2917000000000002
123	2.05	-0.006399999999999961	0.8317999999999999	0.18610000000000004	0.2794	0.7792999999999999	0.21400000000000008	0.4838	0.8293999999999999	0.2906000000000001
124	2.0667	-0.006099999999999994	0.8320999999999998	0.18620000000000025	0.2793	0.7778	0.21430000000000005	0.48230000000000006	0.8323	0.2895000000000002
125	2.0833	-0.005899999999999961	0.8323	0.18630000000000024	0.27860000000000007	0.776	0.2149000000000002	0.4797	0.8358999999999999	0.2885000000000001
126	2.1	-0.005799999999999972	0.8324	0.1866000000000002	0.2772	0.7739	0.2159000000000001	0.4757	0.8403	0.2876000000000002
127	2.1167	-0.005599999999999994	0.8323	0.18700000000000017	0.27560000000000007	0.7718	0.21730000000000016	0.47040000000000004	0.8456999999999999	0.28700000000000025
128	2.1333	-0.005299999999999971	0.8319999999999999	0.1876000000000001	0.274	0.7696999999999998	0.2189000000000002	0.46420000000000006	0.8516999999999999	0.2864000000000001
129	2.15	-0.004799999999999971	0.8314999999999999	0.18800000000000006	0.27290000000000003	0.7673999999999999	0.22050000000000025	0.4575	0.8580999999999999	0.28580000000000017
130	2.1667	-0.0040000000000000036	0.8309	0.18840000000000023	0.2723	0.7648999999999999	0.22230000000000005	0.4506	0.8648	0.2853000000000002
131	2.1833	-0.002899999999999958	0.8300999999999998	0.18850000000000022	0.2721	0.7622	0.22420000000000007	0.4436	0.8714999999999999	0.28480000000000005
132	2.2	-0.0017999999999999683	0.8293999999999999	0.18840000000000023	0.2722	0.7595999999999998	0.22620000000000007	0.4366	0.8782999999999999	0.2843000000000001
133	2.2167	-0.0007999999999999674	0.8289	0.18810000000000004	0.2722	0.7573999999999999	0.22840000000000005	0.4296	0.8851	0.28380000000000016
134	2.2333	-9.999999999998899e-05	0.8288	0.1876000000000001	0.2721	0.7556	0.23050000000000026	0.42290000000000005	0.8916999999999999	0.2833000000000002
135	2.25	0.0005000000000000004	0.8289	0.18700000000000017	0.27190000000000003	0.754	0.23260000000000025	0.4164	0.8982999999999999	0.28290000000000004
136	2.2667	0.0012000000000000344	0.829	0.18630000000000024	0.27170000000000005	0.7525	0.23420000000000007	0.4105	0.9043999999999999	0.2826000000000001
137	2.2833	0.0020000000000000018	0.8291999999999999	0.1856000000000001	0.2714	0.7507999999999999	0.23550000000000015	0.40549999999999997	0.9099999999999999	0.28210000000000013
138	2.3	0.0028000000000000247	0.8291999999999999	0.18500000000000016	0.2711	0.7490999999999999	0.23640000000000005	0.4014	0.9147999999999998	0.2813000000000002
139	2.3167	0.003400000000000014	0.8289	0.1848000000000002	0.27070000000000005	0.7476	0.2370000000000002	0.3981	0.9187999999999998	0.2801000000000001
140	2.3333	0.0039000000000000146	0.8286	0.1848000000000002	0.2702	0.746	0.23740000000000017	0.39480000000000004	0.9219999999999999	0.2781000000000001
141	2.35	0.004200000000000037	0.8283	0.18500000000000016	0.26949999999999996	0.7444	0.23760000000000014	0.391	0.9247999999999998	0.2754000000000002
